<?xml version="1.0" encoding="UTF-8" standalone="no"?>
<!DOCTYPE svg PUBLIC "-//W3C//DTD SVG 1.1//EN"
 "http://www.w3.org/Graphics/SVG/1.1/DTD/svg11.dtd">
<!-- Generated by graphviz version 2.47.0 (20210316.0004)
 -->
<!-- Title: dependencies Pages: 1 -->
<svg width="801pt" height="211pt"
 viewBox="0.00 0.00 801.00 211.00" xmlns="http://www.w3.org/2000/svg" xmlns:xlink="http://www.w3.org/1999/xlink">
<g id="graph0" class="graph" transform="scale(1 1) rotate(0) translate(4 207)">
<title>dependencies</title>
<polygon fill="white" stroke="transparent" points="-4,4 -4,-207 797,-207 797,4 -4,4"/>
<text text-anchor="start" x="375.51" y="-42.4" font-family="Times-12" font-weight="bold" font-size="14.00">Legend</text>
<polygon fill="#ffffb3" stroke="transparent" points="162.5,-10 162.5,-30 182.5,-30 182.5,-10 162.5,-10"/>
<text text-anchor="start" x="186.13" y="-15.4" font-family="Times-12" font-size="14.00"> &#160;Declarations</text>
<polygon fill="#8dd3c7" stroke="transparent" points="275.5,-10 275.5,-30 295.5,-30 295.5,-10 275.5,-10"/>
<text text-anchor="start" x="299.23" y="-15.4" font-family="Times-12" font-size="14.00"> &#160;Module</text>
<polygon fill="#80b1d3" stroke="transparent" points="361.5,-10 361.5,-30 381.5,-30 381.5,-10 361.5,-10"/>
<text text-anchor="start" x="385.28" y="-15.4" font-family="Times-12" font-size="14.00"> &#160;Bootstrap</text>
<polygon fill="#fdb462" stroke="transparent" points="458.5,-10 458.5,-30 478.5,-30 478.5,-10 458.5,-10"/>
<text text-anchor="start" x="482.17" y="-15.4" font-family="Times-12" font-size="14.00"> &#160;Providers</text>
<polygon fill="#fb8072" stroke="transparent" points="554.5,-10 554.5,-30 574.5,-30 574.5,-10 554.5,-10"/>
<text text-anchor="start" x="578.23" y="-15.4" font-family="Times-12" font-size="14.00"> &#160;Exports</text>
<g id="clust1" class="cluster">
<title>cluster_FlaggedMaterialModule</title>
<polygon fill="none" stroke="black" stroke-dasharray="1,5" points="8,-70 8,-195 785,-195 785,-70 8,-70"/>
</g>
<g id="clust2" class="cluster">
<title>cluster_FlaggedMaterialModule_declarations</title>
<polygon fill="none" stroke="black" points="146,-78 146,-130 777,-130 777,-78 146,-78"/>
</g>
<g id="clust6" class="cluster">
<title>cluster_FlaggedMaterialModule_imports</title>
<polygon fill="none" stroke="black" points="16,-78 16,-130 138,-130 138,-78 16,-78"/>
</g>
<!-- FlaggedMaterialComponent -->
<g id="node1" class="node">
<title>FlaggedMaterialComponent</title>
<polygon fill="#ffffb3" stroke="black" points="768.86,-122 595.14,-122 595.14,-86 768.86,-86 768.86,-122"/>
<text text-anchor="middle" x="682" y="-99.8" font-family="Times,serif" font-size="14.00">FlaggedMaterialComponent</text>
</g>
<!-- FlaggedMaterialModule -->
<g id="node4" class="node">
<title>FlaggedMaterialModule</title>
<polygon fill="#8dd3c7" stroke="black" points="435.07,-187 432.07,-191 411.07,-191 408.07,-187 282.93,-187 282.93,-151 435.07,-151 435.07,-187"/>
<text text-anchor="middle" x="359" y="-164.8" font-family="Times,serif" font-size="14.00">FlaggedMaterialModule</text>
</g>
<!-- FlaggedMaterialComponent&#45;&gt;FlaggedMaterialModule -->
<g id="edge1" class="edge">
<title>FlaggedMaterialComponent&#45;&gt;FlaggedMaterialModule</title>
<path fill="none" stroke="black" d="M682,-122.11C682,-141.34 682,-169 682,-169 682,-169 445.14,-169 445.14,-169"/>
<polygon fill="black" stroke="black" points="445.14,-165.5 435.14,-169 445.14,-172.5 445.14,-165.5"/>
</g>
<!-- FlaggedMaterialUpdateComponent -->
<g id="node2" class="node">
<title>FlaggedMaterialUpdateComponent</title>
<polygon fill="#ffffb3" stroke="black" points="577.28,-122 362.72,-122 362.72,-86 577.28,-86 577.28,-122"/>
<text text-anchor="middle" x="470" y="-99.8" font-family="Times,serif" font-size="14.00">FlaggedMaterialUpdateComponent</text>
</g>
<!-- FlaggedMaterialUpdateComponent&#45;&gt;FlaggedMaterialModule -->
<g id="edge2" class="edge">
<title>FlaggedMaterialUpdateComponent&#45;&gt;FlaggedMaterialModule</title>
<path fill="none" stroke="black" d="M398.95,-122.11C398.95,-122.11 398.95,-140.99 398.95,-140.99"/>
<polygon fill="black" stroke="black" points="395.45,-140.99 398.95,-150.99 402.45,-140.99 395.45,-140.99"/>
</g>
<!-- FlaggedOptionsBarComponent -->
<g id="node3" class="node">
<title>FlaggedOptionsBarComponent</title>
<polygon fill="#ffffb3" stroke="black" points="344.48,-122 153.52,-122 153.52,-86 344.48,-86 344.48,-122"/>
<text text-anchor="middle" x="249" y="-99.8" font-family="Times,serif" font-size="14.00">FlaggedOptionsBarComponent</text>
</g>
<!-- FlaggedOptionsBarComponent&#45;&gt;FlaggedMaterialModule -->
<g id="edge3" class="edge">
<title>FlaggedOptionsBarComponent&#45;&gt;FlaggedMaterialModule</title>
<path fill="none" stroke="black" d="M313.73,-122.11C313.73,-122.11 313.73,-140.99 313.73,-140.99"/>
<polygon fill="black" stroke="black" points="310.23,-140.99 313.73,-150.99 317.23,-140.99 310.23,-140.99"/>
</g>
<!-- MaterialModule -->
<g id="node5" class="node">
<title>MaterialModule</title>
<polygon fill="#8dd3c7" stroke="black" points="130.47,-122 127.47,-126 106.47,-126 103.47,-122 23.53,-122 23.53,-86 130.47,-86 130.47,-122"/>
<text text-anchor="middle" x="77" y="-99.8" font-family="Times,serif" font-size="14.00">MaterialModule</text>
</g>
<!-- MaterialModule&#45;&gt;FlaggedMaterialModule -->
<g id="edge4" class="edge">
<title>MaterialModule&#45;&gt;FlaggedMaterialModule</title>
<path fill="none" stroke="black" d="M77,-122.11C77,-141.34 77,-169 77,-169 77,-169 272.69,-169 272.69,-169"/>
<polygon fill="black" stroke="black" points="272.69,-172.5 282.69,-169 272.69,-165.5 272.69,-172.5"/>
</g>
</g>
</svg>
