<?xml version="1.0" encoding="UTF-8" standalone="no"?>
<!DOCTYPE svg PUBLIC "-//W3C//DTD SVG 1.1//EN"
 "http://www.w3.org/Graphics/SVG/1.1/DTD/svg11.dtd">
<!-- Generated by graphviz version 2.47.0 (20210316.0004)
 -->
<!-- Title: dependencies Pages: 1 -->
<svg width="1017pt" height="211pt"
 viewBox="0.00 0.00 1017.00 211.00" xmlns="http://www.w3.org/2000/svg" xmlns:xlink="http://www.w3.org/1999/xlink">
<g id="graph0" class="graph" transform="scale(1 1) rotate(0) translate(4 207)">
<title>dependencies</title>
<polygon fill="white" stroke="transparent" points="-4,4 -4,-207 1013,-207 1013,4 -4,4"/>
<text text-anchor="start" x="483.51" y="-42.4" font-family="Times-12" font-weight="bold" font-size="14.00">Legend</text>
<polygon fill="#ffffb3" stroke="transparent" points="270.5,-10 270.5,-30 290.5,-30 290.5,-10 270.5,-10"/>
<text text-anchor="start" x="294.13" y="-15.4" font-family="Times-12" font-size="14.00"> &#160;Declarations</text>
<polygon fill="#8dd3c7" stroke="transparent" points="383.5,-10 383.5,-30 403.5,-30 403.5,-10 383.5,-10"/>
<text text-anchor="start" x="407.23" y="-15.4" font-family="Times-12" font-size="14.00"> &#160;Module</text>
<polygon fill="#80b1d3" stroke="transparent" points="469.5,-10 469.5,-30 489.5,-30 489.5,-10 469.5,-10"/>
<text text-anchor="start" x="493.28" y="-15.4" font-family="Times-12" font-size="14.00"> &#160;Bootstrap</text>
<polygon fill="#fdb462" stroke="transparent" points="566.5,-10 566.5,-30 586.5,-30 586.5,-10 566.5,-10"/>
<text text-anchor="start" x="590.17" y="-15.4" font-family="Times-12" font-size="14.00"> &#160;Providers</text>
<polygon fill="#fb8072" stroke="transparent" points="662.5,-10 662.5,-30 682.5,-30 682.5,-10 662.5,-10"/>
<text text-anchor="start" x="686.23" y="-15.4" font-family="Times-12" font-size="14.00"> &#160;Exports</text>
<g id="clust1" class="cluster">
<title>cluster_FlaggedMaterialModule</title>
<polygon fill="none" stroke="black" stroke-dasharray="1,5" points="8,-70 8,-195 1001,-195 1001,-70 8,-70"/>
</g>
<g id="clust2" class="cluster">
<title>cluster_FlaggedMaterialModule_declarations</title>
<polygon fill="none" stroke="black" points="362,-78 362,-130 993,-130 993,-78 362,-78"/>
</g>
<g id="clust6" class="cluster">
<title>cluster_FlaggedMaterialModule_imports</title>
<polygon fill="none" stroke="black" points="16,-78 16,-130 354,-130 354,-78 16,-78"/>
</g>
<!-- FlaggedMaterialComponent -->
<g id="node1" class="node">
<title>FlaggedMaterialComponent</title>
<polygon fill="#ffffb3" stroke="black" points="984.86,-122 811.14,-122 811.14,-86 984.86,-86 984.86,-122"/>
<text text-anchor="middle" x="898" y="-99.8" font-family="Times,serif" font-size="14.00">FlaggedMaterialComponent</text>
</g>
<!-- FlaggedMaterialModule -->
<g id="node4" class="node">
<title>FlaggedMaterialModule</title>
<polygon fill="#8dd3c7" stroke="black" points="541.07,-187 538.07,-191 517.07,-191 514.07,-187 388.93,-187 388.93,-151 541.07,-151 541.07,-187"/>
<text text-anchor="middle" x="465" y="-164.8" font-family="Times,serif" font-size="14.00">FlaggedMaterialModule</text>
</g>
<!-- FlaggedMaterialComponent&#45;&gt;FlaggedMaterialModule -->
<g id="edge1" class="edge">
<title>FlaggedMaterialComponent&#45;&gt;FlaggedMaterialModule</title>
<path fill="none" stroke="black" d="M898,-122.28C898,-143.32 898,-175 898,-175 898,-175 551.41,-175 551.41,-175"/>
<polygon fill="black" stroke="black" points="551.42,-171.5 541.41,-175 551.41,-178.5 551.42,-171.5"/>
</g>
<!-- FlaggedMaterialUpdateComponent -->
<g id="node2" class="node">
<title>FlaggedMaterialUpdateComponent</title>
<polygon fill="#ffffb3" stroke="black" points="793.28,-122 578.72,-122 578.72,-86 793.28,-86 793.28,-122"/>
<text text-anchor="middle" x="686" y="-99.8" font-family="Times,serif" font-size="14.00">FlaggedMaterialUpdateComponent</text>
</g>
<!-- FlaggedMaterialUpdateComponent&#45;&gt;FlaggedMaterialModule -->
<g id="edge2" class="edge">
<title>FlaggedMaterialUpdateComponent&#45;&gt;FlaggedMaterialModule</title>
<path fill="none" stroke="black" d="M686,-122.02C686,-139.37 686,-163 686,-163 686,-163 551.06,-163 551.06,-163"/>
<polygon fill="black" stroke="black" points="551.06,-159.5 541.06,-163 551.06,-166.5 551.06,-159.5"/>
</g>
<!-- FlaggedOptionsBarComponent -->
<g id="node3" class="node">
<title>FlaggedOptionsBarComponent</title>
<polygon fill="#ffffb3" stroke="black" points="560.48,-122 369.52,-122 369.52,-86 560.48,-86 560.48,-122"/>
<text text-anchor="middle" x="465" y="-99.8" font-family="Times,serif" font-size="14.00">FlaggedOptionsBarComponent</text>
</g>
<!-- FlaggedOptionsBarComponent&#45;&gt;FlaggedMaterialModule -->
<g id="edge3" class="edge">
<title>FlaggedOptionsBarComponent&#45;&gt;FlaggedMaterialModule</title>
<path fill="none" stroke="black" d="M465,-122.11C465,-122.11 465,-140.99 465,-140.99"/>
<polygon fill="black" stroke="black" points="461.5,-140.99 465,-150.99 468.5,-140.99 461.5,-140.99"/>
</g>
<!-- FlaggedMaterialRoutingModule -->
<g id="node5" class="node">
<title>FlaggedMaterialRoutingModule</title>
<polygon fill="#8dd3c7" stroke="black" points="345.69,-122 342.69,-126 321.69,-126 318.69,-122 148.31,-122 148.31,-86 345.69,-86 345.69,-122"/>
<text text-anchor="middle" x="247" y="-99.8" font-family="Times,serif" font-size="14.00">FlaggedMaterialRoutingModule</text>
</g>
<!-- FlaggedMaterialRoutingModule&#45;&gt;FlaggedMaterialModule -->
<g id="edge4" class="edge">
<title>FlaggedMaterialRoutingModule&#45;&gt;FlaggedMaterialModule</title>
<path fill="none" stroke="black" d="M247,-122.02C247,-139.37 247,-163 247,-163 247,-163 378.75,-163 378.75,-163"/>
<polygon fill="black" stroke="black" points="378.75,-166.5 388.75,-163 378.75,-159.5 378.75,-166.5"/>
</g>
<!-- MaterialModule -->
<g id="node6" class="node">
<title>MaterialModule</title>
<polygon fill="#8dd3c7" stroke="black" points="130.47,-122 127.47,-126 106.47,-126 103.47,-122 23.53,-122 23.53,-86 130.47,-86 130.47,-122"/>
<text text-anchor="middle" x="77" y="-99.8" font-family="Times,serif" font-size="14.00">MaterialModule</text>
</g>
<!-- MaterialModule&#45;&gt;FlaggedMaterialModule -->
<g id="edge5" class="edge">
<title>MaterialModule&#45;&gt;FlaggedMaterialModule</title>
<path fill="none" stroke="black" d="M77,-122.28C77,-143.32 77,-175 77,-175 77,-175 378.81,-175 378.81,-175"/>
<polygon fill="black" stroke="black" points="378.81,-178.5 388.81,-175 378.81,-171.5 378.81,-178.5"/>
</g>
</g>
</svg>
