<?xml version="1.0" encoding="UTF-8" standalone="no"?>
<!DOCTYPE svg PUBLIC "-//W3C//DTD SVG 1.1//EN"
 "http://www.w3.org/Graphics/SVG/1.1/DTD/svg11.dtd">
<!-- Generated by graphviz version 2.47.0 (20210316.0004)
 -->
<!-- Title: dependencies Pages: 1 -->
<svg width="1961pt" height="284pt"
 viewBox="0.00 0.00 1961.00 284.00" xmlns="http://www.w3.org/2000/svg" xmlns:xlink="http://www.w3.org/1999/xlink">
<g id="graph0" class="graph" transform="scale(1 1) rotate(0) translate(4 280)">
<title>dependencies</title>
<polygon fill="white" stroke="transparent" points="-4,4 -4,-280 1957,-280 1957,4 -4,4"/>
<text text-anchor="start" x="955.51" y="-42.4" font-family="Times-12" font-weight="bold" font-size="14.00">Legend</text>
<polygon fill="#ffffb3" stroke="transparent" points="742.5,-10 742.5,-30 762.5,-30 762.5,-10 742.5,-10"/>
<text text-anchor="start" x="766.13" y="-15.4" font-family="Times-12" font-size="14.00"> &#160;Declarations</text>
<polygon fill="#8dd3c7" stroke="transparent" points="855.5,-10 855.5,-30 875.5,-30 875.5,-10 855.5,-10"/>
<text text-anchor="start" x="879.23" y="-15.4" font-family="Times-12" font-size="14.00"> &#160;Module</text>
<polygon fill="#80b1d3" stroke="transparent" points="941.5,-10 941.5,-30 961.5,-30 961.5,-10 941.5,-10"/>
<text text-anchor="start" x="965.28" y="-15.4" font-family="Times-12" font-size="14.00"> &#160;Bootstrap</text>
<polygon fill="#fdb462" stroke="transparent" points="1038.5,-10 1038.5,-30 1058.5,-30 1058.5,-10 1038.5,-10"/>
<text text-anchor="start" x="1062.17" y="-15.4" font-family="Times-12" font-size="14.00"> &#160;Providers</text>
<polygon fill="#fb8072" stroke="transparent" points="1134.5,-10 1134.5,-30 1154.5,-30 1154.5,-10 1134.5,-10"/>
<text text-anchor="start" x="1158.23" y="-15.4" font-family="Times-12" font-size="14.00"> &#160;Exports</text>
<g id="clust1" class="cluster">
<title>cluster_MaterialModule</title>
<polygon fill="none" stroke="black" stroke-dasharray="1,5" points="8,-70 8,-268 1945,-268 1945,-70 8,-70"/>
</g>
<g id="clust14" class="cluster">
<title>cluster_MaterialModule_exports</title>
<polygon fill="none" stroke="black" points="814,-208 814,-260 1012,-260 1012,-208 814,-208"/>
</g>
<g id="clust13" class="cluster">
<title>cluster_MaterialModule_imports</title>
<polygon fill="none" stroke="black" points="1769,-78 1769,-130 1937,-130 1937,-78 1769,-78"/>
</g>
<g id="clust2" class="cluster">
<title>cluster_MaterialModule_declarations</title>
<polygon fill="none" stroke="black" points="16,-78 16,-130 1761,-130 1761,-78 16,-78"/>
</g>
<!-- CommentModalComponent -->
<g id="node1" class="node">
<title>CommentModalComponent</title>
<polygon fill="#ffffb3" stroke="black" points="1752.61,-122 1579.39,-122 1579.39,-86 1752.61,-86 1752.61,-122"/>
<text text-anchor="middle" x="1666" y="-99.8" font-family="Times,serif" font-size="14.00">CommentModalComponent</text>
</g>
<!-- MaterialModule -->
<g id="node11" class="node">
<title>MaterialModule</title>
<polygon fill="#8dd3c7" stroke="black" points="966.47,-187 963.47,-191 942.47,-191 939.47,-187 859.53,-187 859.53,-151 966.47,-151 966.47,-187"/>
<text text-anchor="middle" x="913" y="-164.8" font-family="Times,serif" font-size="14.00">MaterialModule</text>
</g>
<!-- CommentModalComponent&#45;&gt;MaterialModule -->
<g id="edge1" class="edge">
<title>CommentModalComponent&#45;&gt;MaterialModule</title>
<path fill="none" stroke="black" d="M1666,-122.28C1666,-143.32 1666,-175 1666,-175 1666,-175 976.55,-175 976.55,-175"/>
<polygon fill="black" stroke="black" points="976.55,-171.5 966.55,-175 976.55,-178.5 976.55,-171.5"/>
</g>
<!-- CurrencyToolTipCellComponent -->
<g id="node2" class="node">
<title>CurrencyToolTipCellComponent</title>
<polygon fill="#ffffb3" stroke="black" points="1561.14,-122 1358.86,-122 1358.86,-86 1561.14,-86 1561.14,-122"/>
<text text-anchor="middle" x="1460" y="-99.8" font-family="Times,serif" font-size="14.00">CurrencyToolTipCellComponent</text>
</g>
<!-- CurrencyToolTipCellComponent&#45;&gt;MaterialModule -->
<g id="edge2" class="edge">
<title>CurrencyToolTipCellComponent&#45;&gt;MaterialModule</title>
<path fill="none" stroke="black" d="M1460,-122.11C1460,-141.34 1460,-169 1460,-169 1460,-169 976.69,-169 976.69,-169"/>
<polygon fill="black" stroke="black" points="976.69,-165.5 966.69,-169 976.69,-172.5 976.69,-165.5"/>
</g>
<!-- FilterDisplayCellComponent -->
<g id="node3" class="node">
<title>FilterDisplayCellComponent</title>
<polygon fill="#ffffb3" stroke="black" points="1340.04,-122 1161.96,-122 1161.96,-86 1340.04,-86 1340.04,-122"/>
<text text-anchor="middle" x="1251" y="-99.8" font-family="Times,serif" font-size="14.00">FilterDisplayCellComponent</text>
</g>
<!-- FilterDisplayCellComponent&#45;&gt;MaterialModule -->
<g id="edge3" class="edge">
<title>FilterDisplayCellComponent&#45;&gt;MaterialModule</title>
<path fill="none" stroke="black" d="M1251,-122.02C1251,-139.37 1251,-163 1251,-163 1251,-163 976.56,-163 976.56,-163"/>
<polygon fill="black" stroke="black" points="976.56,-159.5 966.56,-163 976.56,-166.5 976.56,-159.5"/>
</g>
<!-- FilterFormComponent -->
<g id="node4" class="node">
<title>FilterFormComponent</title>
<polygon fill="#ffffb3" stroke="black" points="1144,-122 1002,-122 1002,-86 1144,-86 1144,-122"/>
<text text-anchor="middle" x="1073" y="-99.8" font-family="Times,serif" font-size="14.00">FilterFormComponent</text>
</g>
<!-- FilterFormComponent&#45;&gt;MaterialModule -->
<g id="edge4" class="edge">
<title>FilterFormComponent&#45;&gt;MaterialModule</title>
<path fill="none" stroke="black" d="M1074.01,-122.24C1074.01,-137.57 1074.01,-157 1074.01,-157 1074.01,-157 976.61,-157 976.61,-157"/>
<polygon fill="black" stroke="black" points="976.61,-153.5 966.61,-157 976.61,-160.5 976.61,-153.5"/>
</g>
<!-- FlagModalComponent -->
<g id="node5" class="node">
<title>FlagModalComponent</title>
<polygon fill="#ffffb3" stroke="black" points="984.27,-122 841.73,-122 841.73,-86 984.27,-86 984.27,-122"/>
<text text-anchor="middle" x="913" y="-99.8" font-family="Times,serif" font-size="14.00">FlagModalComponent</text>
</g>
<!-- FlagModalComponent&#45;&gt;MaterialModule -->
<g id="edge5" class="edge">
<title>FlagModalComponent&#45;&gt;MaterialModule</title>
<path fill="none" stroke="black" d="M913,-122.11C913,-122.11 913,-140.99 913,-140.99"/>
<polygon fill="black" stroke="black" points="909.5,-140.99 913,-150.99 916.5,-140.99 909.5,-140.99"/>
</g>
<!-- HeaderGroupComponent -->
<g id="node6" class="node">
<title>HeaderGroupComponent</title>
<polygon fill="#ffffb3" stroke="black" points="823.51,-122 666.49,-122 666.49,-86 823.51,-86 823.51,-122"/>
<text text-anchor="middle" x="745" y="-99.8" font-family="Times,serif" font-size="14.00">HeaderGroupComponent</text>
</g>
<!-- HeaderGroupComponent&#45;&gt;MaterialModule -->
<g id="edge6" class="edge">
<title>HeaderGroupComponent&#45;&gt;MaterialModule</title>
<path fill="none" stroke="black" d="M744.11,-122.24C744.11,-137.57 744.11,-157 744.11,-157 744.11,-157 849.1,-157 849.1,-157"/>
<polygon fill="black" stroke="black" points="849.1,-160.5 859.1,-157 849.1,-153.5 849.1,-160.5"/>
</g>
<!-- MaterialComponent -->
<g id="node7" class="node">
<title>MaterialComponent</title>
<polygon fill="#ffffb3" stroke="black" points="648.25,-122 519.75,-122 519.75,-86 648.25,-86 648.25,-122"/>
<text text-anchor="middle" x="584" y="-99.8" font-family="Times,serif" font-size="14.00">MaterialComponent</text>
</g>
<!-- MaterialComponent&#45;&gt;MaterialModule -->
<g id="edge7" class="edge">
<title>MaterialComponent&#45;&gt;MaterialModule</title>
<path fill="none" stroke="black" d="M584,-122.02C584,-139.37 584,-163 584,-163 584,-163 849.41,-163 849.41,-163"/>
<polygon fill="black" stroke="black" points="849.41,-166.5 859.41,-163 849.41,-159.5 849.41,-166.5"/>
</g>
<!-- OptionsBarComponent -->
<g id="node8" class="node">
<title>OptionsBarComponent</title>
<polygon fill="#ffffb3" stroke="black" points="501.88,-122 356.12,-122 356.12,-86 501.88,-86 501.88,-122"/>
<text text-anchor="middle" x="429" y="-99.8" font-family="Times,serif" font-size="14.00">OptionsBarComponent</text>
</g>
<!-- OptionsBarComponent&#45;&gt;MaterialModule -->
<g id="edge8" class="edge">
<title>OptionsBarComponent&#45;&gt;MaterialModule</title>
<path fill="none" stroke="black" d="M429,-122.11C429,-141.34 429,-169 429,-169 429,-169 849.35,-169 849.35,-169"/>
<polygon fill="black" stroke="black" points="849.35,-172.5 859.35,-169 849.35,-165.5 849.35,-172.5"/>
</g>
<!-- SubmitModalComponent -->
<g id="node9" class="node">
<title>SubmitModalComponent</title>
<polygon fill="#ffffb3" stroke="black" points="338.34,-122 179.66,-122 179.66,-86 338.34,-86 338.34,-122"/>
<text text-anchor="middle" x="259" y="-99.8" font-family="Times,serif" font-size="14.00">SubmitModalComponent</text>
</g>
<!-- SubmitModalComponent&#45;&gt;MaterialModule -->
<g id="edge9" class="edge">
<title>SubmitModalComponent&#45;&gt;MaterialModule</title>
<path fill="none" stroke="black" d="M259,-122.28C259,-143.32 259,-175 259,-175 259,-175 849.48,-175 849.48,-175"/>
<polygon fill="black" stroke="black" points="849.48,-178.5 859.48,-175 849.48,-171.5 849.48,-178.5"/>
</g>
<!-- ValueCellComponent -->
<g id="node10" class="node">
<title>ValueCellComponent</title>
<polygon fill="#ffffb3" stroke="black" points="162.09,-122 23.91,-122 23.91,-86 162.09,-86 162.09,-122"/>
<text text-anchor="middle" x="93" y="-99.8" font-family="Times,serif" font-size="14.00">ValueCellComponent</text>
</g>
<!-- ValueCellComponent&#45;&gt;MaterialModule -->
<g id="edge10" class="edge">
<title>ValueCellComponent&#45;&gt;MaterialModule</title>
<path fill="none" stroke="black" d="M93,-122.25C93,-145.02 93,-181 93,-181 93,-181 849.51,-181 849.51,-181"/>
<polygon fill="black" stroke="black" points="849.51,-184.5 859.51,-181 849.51,-177.5 849.51,-184.5"/>
</g>
<!-- FilterDisplayCellComponent  -->
<g id="node13" class="node">
<title>FilterDisplayCellComponent </title>
<polygon fill="#fb8072" stroke="black" points="1004.04,-252 821.96,-252 821.96,-216 1004.04,-216 1004.04,-252"/>
<text text-anchor="middle" x="913" y="-229.8" font-family="Times,serif" font-size="14.00">FilterDisplayCellComponent </text>
</g>
<!-- MaterialModule&#45;&gt;FilterDisplayCellComponent  -->
<g id="edge12" class="edge">
<title>MaterialModule&#45;&gt;FilterDisplayCellComponent </title>
<path fill="none" stroke="black" stroke-dasharray="5,2" d="M913,-187.11C913,-187.11 913,-205.99 913,-205.99"/>
<polygon fill="black" stroke="black" points="909.5,-205.99 913,-215.99 916.5,-205.99 909.5,-205.99"/>
</g>
<!-- MaterialRoutingModule -->
<g id="node12" class="node">
<title>MaterialRoutingModule</title>
<polygon fill="#8dd3c7" stroke="black" points="1929.09,-122 1926.09,-126 1905.09,-126 1902.09,-122 1776.91,-122 1776.91,-86 1929.09,-86 1929.09,-122"/>
<text text-anchor="middle" x="1853" y="-99.8" font-family="Times,serif" font-size="14.00">MaterialRoutingModule</text>
</g>
<!-- MaterialRoutingModule&#45;&gt;MaterialModule -->
<g id="edge11" class="edge">
<title>MaterialRoutingModule&#45;&gt;MaterialModule</title>
<path fill="none" stroke="black" d="M1853,-122.25C1853,-145.02 1853,-181 1853,-181 1853,-181 976.57,-181 976.57,-181"/>
<polygon fill="black" stroke="black" points="976.57,-177.5 966.57,-181 976.57,-184.5 976.57,-177.5"/>
</g>
</g>
</svg>
