<?xml version="1.0" encoding="UTF-8" standalone="no"?>
<!DOCTYPE svg PUBLIC "-//W3C//DTD SVG 1.1//EN"
 "http://www.w3.org/Graphics/SVG/1.1/DTD/svg11.dtd">
<!-- Generated by graphviz version 2.47.0 (20210316.0004)
 -->
<!-- Title: dependencies Pages: 1 -->
<svg width="1785pt" height="284pt"
 viewBox="0.00 0.00 1785.00 284.00" xmlns="http://www.w3.org/2000/svg" xmlns:xlink="http://www.w3.org/1999/xlink">
<g id="graph0" class="graph" transform="scale(1 1) rotate(0) translate(4 280)">
<title>dependencies</title>
<polygon fill="white" stroke="transparent" points="-4,4 -4,-280 1781,-280 1781,4 -4,4"/>
<text text-anchor="start" x="867.51" y="-42.4" font-family="Times-12" font-weight="bold" font-size="14.00">Legend</text>
<polygon fill="#ffffb3" stroke="transparent" points="654.5,-10 654.5,-30 674.5,-30 674.5,-10 654.5,-10"/>
<text text-anchor="start" x="678.13" y="-15.4" font-family="Times-12" font-size="14.00"> &#160;Declarations</text>
<polygon fill="#8dd3c7" stroke="transparent" points="767.5,-10 767.5,-30 787.5,-30 787.5,-10 767.5,-10"/>
<text text-anchor="start" x="791.23" y="-15.4" font-family="Times-12" font-size="14.00"> &#160;Module</text>
<polygon fill="#80b1d3" stroke="transparent" points="853.5,-10 853.5,-30 873.5,-30 873.5,-10 853.5,-10"/>
<text text-anchor="start" x="877.28" y="-15.4" font-family="Times-12" font-size="14.00"> &#160;Bootstrap</text>
<polygon fill="#fdb462" stroke="transparent" points="950.5,-10 950.5,-30 970.5,-30 970.5,-10 950.5,-10"/>
<text text-anchor="start" x="974.17" y="-15.4" font-family="Times-12" font-size="14.00"> &#160;Providers</text>
<polygon fill="#fb8072" stroke="transparent" points="1046.5,-10 1046.5,-30 1066.5,-30 1066.5,-10 1046.5,-10"/>
<text text-anchor="start" x="1070.23" y="-15.4" font-family="Times-12" font-size="14.00"> &#160;Exports</text>
<g id="clust1" class="cluster">
<title>cluster_MaterialModule</title>
<polygon fill="none" stroke="black" stroke-dasharray="1,5" points="8,-70 8,-268 1769,-268 1769,-70 8,-70"/>
</g>
<g id="clust14" class="cluster">
<title>cluster_MaterialModule_exports</title>
<polygon fill="none" stroke="black" points="730,-208 730,-260 928,-260 928,-208 730,-208"/>
</g>
<g id="clust2" class="cluster">
<title>cluster_MaterialModule_declarations</title>
<polygon fill="none" stroke="black" points="16,-78 16,-130 1761,-130 1761,-78 16,-78"/>
</g>
<!-- CommentModalComponent -->
<g id="node1" class="node">
<title>CommentModalComponent</title>
<polygon fill="#ffffb3" stroke="black" points="1752.61,-122 1579.39,-122 1579.39,-86 1752.61,-86 1752.61,-122"/>
<text text-anchor="middle" x="1666" y="-99.8" font-family="Times,serif" font-size="14.00">CommentModalComponent</text>
</g>
<!-- MaterialModule -->
<g id="node11" class="node">
<title>MaterialModule</title>
<polygon fill="#8dd3c7" stroke="black" points="882.47,-187 879.47,-191 858.47,-191 855.47,-187 775.53,-187 775.53,-151 882.47,-151 882.47,-187"/>
<text text-anchor="middle" x="829" y="-164.8" font-family="Times,serif" font-size="14.00">MaterialModule</text>
</g>
<!-- CommentModalComponent&#45;&gt;MaterialModule -->
<g id="edge1" class="edge">
<title>CommentModalComponent&#45;&gt;MaterialModule</title>
<path fill="none" stroke="black" d="M1666,-122.01C1666,-144.49 1666,-180 1666,-180 1666,-180 892.63,-180 892.63,-180"/>
<polygon fill="black" stroke="black" points="892.63,-176.5 882.63,-180 892.63,-183.5 892.63,-176.5"/>
</g>
<!-- CurrencyToolTipCellComponent -->
<g id="node2" class="node">
<title>CurrencyToolTipCellComponent</title>
<polygon fill="#ffffb3" stroke="black" points="1561.14,-122 1358.86,-122 1358.86,-86 1561.14,-86 1561.14,-122"/>
<text text-anchor="middle" x="1460" y="-99.8" font-family="Times,serif" font-size="14.00">CurrencyToolTipCellComponent</text>
</g>
<!-- CurrencyToolTipCellComponent&#45;&gt;MaterialModule -->
<g id="edge2" class="edge">
<title>CurrencyToolTipCellComponent&#45;&gt;MaterialModule</title>
<path fill="none" stroke="black" d="M1460,-122.13C1460,-142.57 1460,-173 1460,-173 1460,-173 892.53,-173 892.53,-173"/>
<polygon fill="black" stroke="black" points="892.53,-169.5 882.53,-173 892.53,-176.5 892.53,-169.5"/>
</g>
<!-- FilterDisplayCellComponent -->
<g id="node3" class="node">
<title>FilterDisplayCellComponent</title>
<polygon fill="#ffffb3" stroke="black" points="1340.04,-122 1161.96,-122 1161.96,-86 1340.04,-86 1340.04,-122"/>
<text text-anchor="middle" x="1251" y="-99.8" font-family="Times,serif" font-size="14.00">FilterDisplayCellComponent</text>
</g>
<!-- FilterDisplayCellComponent&#45;&gt;MaterialModule -->
<g id="edge3" class="edge">
<title>FilterDisplayCellComponent&#45;&gt;MaterialModule</title>
<path fill="none" stroke="black" d="M1251,-122.27C1251,-140.56 1251,-166 1251,-166 1251,-166 892.88,-166 892.88,-166"/>
<polygon fill="black" stroke="black" points="892.88,-162.5 882.88,-166 892.88,-169.5 892.88,-162.5"/>
</g>
<!-- FilterFormComponent -->
<g id="node4" class="node">
<title>FilterFormComponent</title>
<polygon fill="#ffffb3" stroke="black" points="1144,-122 1002,-122 1002,-86 1144,-86 1144,-122"/>
<text text-anchor="middle" x="1073" y="-99.8" font-family="Times,serif" font-size="14.00">FilterFormComponent</text>
</g>
<!-- FilterFormComponent&#45;&gt;MaterialModule -->
<g id="edge4" class="edge">
<title>FilterFormComponent&#45;&gt;MaterialModule</title>
<path fill="none" stroke="black" d="M1073,-122.01C1073,-138.05 1073,-159 1073,-159 1073,-159 892.55,-159 892.55,-159"/>
<polygon fill="black" stroke="black" points="892.55,-155.5 882.55,-159 892.55,-162.5 892.55,-155.5"/>
</g>
<!-- FlagModalComponent -->
<g id="node5" class="node">
<title>FlagModalComponent</title>
<polygon fill="#ffffb3" stroke="black" points="984.27,-122 841.73,-122 841.73,-86 984.27,-86 984.27,-122"/>
<text text-anchor="middle" x="913" y="-99.8" font-family="Times,serif" font-size="14.00">FlagModalComponent</text>
</g>
<!-- FlagModalComponent&#45;&gt;MaterialModule -->
<g id="edge5" class="edge">
<title>FlagModalComponent&#45;&gt;MaterialModule</title>
<path fill="none" stroke="black" d="M862.05,-122.11C862.05,-122.11 862.05,-140.99 862.05,-140.99"/>
<polygon fill="black" stroke="black" points="858.55,-140.99 862.05,-150.99 865.55,-140.99 858.55,-140.99"/>
</g>
<!-- HeaderGroupComponent -->
<g id="node6" class="node">
<title>HeaderGroupComponent</title>
<polygon fill="#ffffb3" stroke="black" points="823.51,-122 666.49,-122 666.49,-86 823.51,-86 823.51,-122"/>
<text text-anchor="middle" x="745" y="-99.8" font-family="Times,serif" font-size="14.00">HeaderGroupComponent</text>
</g>
<!-- HeaderGroupComponent&#45;&gt;MaterialModule -->
<g id="edge6" class="edge">
<title>HeaderGroupComponent&#45;&gt;MaterialModule</title>
<path fill="none" stroke="black" d="M799.63,-122.11C799.63,-122.11 799.63,-140.99 799.63,-140.99"/>
<polygon fill="black" stroke="black" points="796.14,-140.99 799.63,-150.99 803.14,-140.99 796.14,-140.99"/>
</g>
<!-- MaterialComponent -->
<g id="node7" class="node">
<title>MaterialComponent</title>
<polygon fill="#ffffb3" stroke="black" points="648.25,-122 519.75,-122 519.75,-86 648.25,-86 648.25,-122"/>
<text text-anchor="middle" x="584" y="-99.8" font-family="Times,serif" font-size="14.00">MaterialComponent</text>
</g>
<!-- MaterialComponent&#45;&gt;MaterialModule -->
<g id="edge7" class="edge">
<title>MaterialComponent&#45;&gt;MaterialModule</title>
<path fill="none" stroke="black" d="M584,-122.01C584,-138.05 584,-159 584,-159 584,-159 765.23,-159 765.23,-159"/>
<polygon fill="black" stroke="black" points="765.23,-162.5 775.23,-159 765.23,-155.5 765.23,-162.5"/>
</g>
<!-- OptionsBarComponent -->
<g id="node8" class="node">
<title>OptionsBarComponent</title>
<polygon fill="#ffffb3" stroke="black" points="501.88,-122 356.12,-122 356.12,-86 501.88,-86 501.88,-122"/>
<text text-anchor="middle" x="429" y="-99.8" font-family="Times,serif" font-size="14.00">OptionsBarComponent</text>
</g>
<!-- OptionsBarComponent&#45;&gt;MaterialModule -->
<g id="edge8" class="edge">
<title>OptionsBarComponent&#45;&gt;MaterialModule</title>
<path fill="none" stroke="black" d="M429,-122.27C429,-140.56 429,-166 429,-166 429,-166 765.47,-166 765.47,-166"/>
<polygon fill="black" stroke="black" points="765.47,-169.5 775.47,-166 765.47,-162.5 765.47,-169.5"/>
</g>
<!-- SubmitModalComponent -->
<g id="node9" class="node">
<title>SubmitModalComponent</title>
<polygon fill="#ffffb3" stroke="black" points="338.34,-122 179.66,-122 179.66,-86 338.34,-86 338.34,-122"/>
<text text-anchor="middle" x="259" y="-99.8" font-family="Times,serif" font-size="14.00">SubmitModalComponent</text>
</g>
<!-- SubmitModalComponent&#45;&gt;MaterialModule -->
<g id="edge9" class="edge">
<title>SubmitModalComponent&#45;&gt;MaterialModule</title>
<path fill="none" stroke="black" d="M259,-122.13C259,-142.57 259,-173 259,-173 259,-173 765.38,-173 765.38,-173"/>
<polygon fill="black" stroke="black" points="765.38,-176.5 775.38,-173 765.38,-169.5 765.38,-176.5"/>
</g>
<!-- ValueCellComponent -->
<g id="node10" class="node">
<title>ValueCellComponent</title>
<polygon fill="#ffffb3" stroke="black" points="162.09,-122 23.91,-122 23.91,-86 162.09,-86 162.09,-122"/>
<text text-anchor="middle" x="93" y="-99.8" font-family="Times,serif" font-size="14.00">ValueCellComponent</text>
</g>
<!-- ValueCellComponent&#45;&gt;MaterialModule -->
<g id="edge10" class="edge">
<title>ValueCellComponent&#45;&gt;MaterialModule</title>
<path fill="none" stroke="black" d="M93,-122.01C93,-144.49 93,-180 93,-180 93,-180 765.48,-180 765.48,-180"/>
<polygon fill="black" stroke="black" points="765.48,-183.5 775.48,-180 765.48,-176.5 765.48,-183.5"/>
</g>
<!-- FilterDisplayCellComponent  -->
<g id="node12" class="node">
<title>FilterDisplayCellComponent </title>
<polygon fill="#fb8072" stroke="black" points="920.04,-252 737.96,-252 737.96,-216 920.04,-216 920.04,-252"/>
<text text-anchor="middle" x="829" y="-229.8" font-family="Times,serif" font-size="14.00">FilterDisplayCellComponent </text>
</g>
<!-- MaterialModule&#45;&gt;FilterDisplayCellComponent  -->
<g id="edge11" class="edge">
<title>MaterialModule&#45;&gt;FilterDisplayCellComponent </title>
<path fill="none" stroke="black" stroke-dasharray="5,2" d="M829,-187.11C829,-187.11 829,-205.99 829,-205.99"/>
<polygon fill="black" stroke="black" points="825.5,-205.99 829,-215.99 832.5,-205.99 825.5,-205.99"/>
</g>
</g>
</svg>
