<?xml version="1.0" encoding="UTF-8" standalone="no"?>
<!DOCTYPE svg PUBLIC "-//W3C//DTD SVG 1.1//EN"
 "http://www.w3.org/Graphics/SVG/1.1/DTD/svg11.dtd">
<!-- Generated by graphviz version 2.47.0 (20210316.0004)
 -->
<!-- Title: dependencies Pages: 1 -->
<svg width="3516pt" height="295pt"
 viewBox="0.00 0.00 3516.00 295.00" xmlns="http://www.w3.org/2000/svg" xmlns:xlink="http://www.w3.org/1999/xlink">
<g id="graph0" class="graph" transform="scale(1 1) rotate(0) translate(4 291)">
<title>dependencies</title>
<polygon fill="white" stroke="transparent" points="-4,4 -4,-291 3512,-291 3512,4 -4,4"/>
<text text-anchor="start" x="1733.01" y="-42.4" font-family="Times-12" font-weight="bold" font-size="14.00">Legend</text>
<polygon fill="#ffffb3" stroke="transparent" points="1520,-10 1520,-30 1540,-30 1540,-10 1520,-10"/>
<text text-anchor="start" x="1543.63" y="-15.4" font-family="Times-12" font-size="14.00"> &#160;Declarations</text>
<polygon fill="#8dd3c7" stroke="transparent" points="1633,-10 1633,-30 1653,-30 1653,-10 1633,-10"/>
<text text-anchor="start" x="1656.73" y="-15.4" font-family="Times-12" font-size="14.00"> &#160;Module</text>
<polygon fill="#80b1d3" stroke="transparent" points="1719,-10 1719,-30 1739,-30 1739,-10 1719,-10"/>
<text text-anchor="start" x="1742.78" y="-15.4" font-family="Times-12" font-size="14.00"> &#160;Bootstrap</text>
<polygon fill="#fdb462" stroke="transparent" points="1816,-10 1816,-30 1836,-30 1836,-10 1816,-10"/>
<text text-anchor="start" x="1839.67" y="-15.4" font-family="Times-12" font-size="14.00"> &#160;Providers</text>
<polygon fill="#fb8072" stroke="transparent" points="1912,-10 1912,-30 1932,-30 1932,-10 1912,-10"/>
<text text-anchor="start" x="1935.73" y="-15.4" font-family="Times-12" font-size="14.00"> &#160;Exports</text>
<g id="clust1" class="cluster">
<title>cluster_AppModule</title>
<polygon fill="none" stroke="black" stroke-dasharray="1,5" points="8,-70 8,-279 1179,-279 1179,-70 8,-70"/>
</g>
<g id="clust2" class="cluster">
<title>cluster_AppModule_declarations</title>
<polygon fill="none" stroke="black" points="472,-78 472,-130 1171,-130 1171,-78 472,-78"/>
</g>
<g id="clust8" class="cluster">
<title>cluster_AppModule_imports</title>
<polygon fill="none" stroke="black" points="320,-78 320,-130 464,-130 464,-78 320,-78"/>
</g>
<g id="clust10" class="cluster">
<title>cluster_AppModule_bootstrap</title>
<polygon fill="none" stroke="black" points="567,-219 567,-271 697,-271 697,-219 567,-219"/>
</g>
<g id="clust11" class="cluster">
<title>cluster_AppModule_providers</title>
<polygon fill="none" stroke="black" points="16,-78 16,-130 312,-130 312,-78 16,-78"/>
</g>
<g id="clust18" class="cluster">
<title>cluster_ChangesPageModule</title>
<polygon fill="none" stroke="black" stroke-dasharray="1,5" points="1187,-70 1187,-206 1349,-206 1349,-70 1187,-70"/>
</g>
<g id="clust19" class="cluster">
<title>cluster_ChangesPageModule_declarations</title>
<polygon fill="none" stroke="black" points="1195,-78 1195,-130 1341,-130 1341,-78 1195,-78"/>
</g>
<g id="clust31" class="cluster">
<title>cluster_FlaggedMaterialModule</title>
<polygon fill="none" stroke="black" stroke-dasharray="1,5" points="2326,-146 2326,-271 3319,-271 3319,-146 2326,-146"/>
</g>
<g id="clust32" class="cluster">
<title>cluster_FlaggedMaterialModule_declarations</title>
<polygon fill="none" stroke="black" points="2680,-154 2680,-206 3311,-206 3311,-154 2680,-154"/>
</g>
<g id="clust36" class="cluster">
<title>cluster_FlaggedMaterialModule_imports</title>
<polygon fill="none" stroke="black" points="2334,-154 2334,-206 2672,-206 2672,-154 2334,-154"/>
</g>
<g id="clust46" class="cluster">
<title>cluster_MaterialModule</title>
<polygon fill="none" stroke="black" stroke-dasharray="1,5" points="1357,-70 1357,-138 3500,-138 3500,-70 1357,-70"/>
</g>
<g id="clust47" class="cluster">
<title>cluster_MaterialModule_declarations</title>
<polygon fill="none" stroke="black" points="1747,-78 1747,-130 3492,-130 3492,-78 1747,-78"/>
</g>
<g id="clust58" class="cluster">
<title>cluster_MaterialModule_imports</title>
<polygon fill="none" stroke="black" points="1571,-78 1571,-130 1739,-130 1739,-78 1571,-78"/>
</g>
<g id="clust59" class="cluster">
<title>cluster_MaterialModule_exports</title>
<polygon fill="none" stroke="black" points="1365,-78 1365,-130 1563,-130 1563,-78 1365,-78"/>
</g>
<!-- ErrorComponent -->
<g id="node1" class="node">
<title>ErrorComponent</title>
<polygon fill="#ffffb3" stroke="black" points="1163.37,-122 1052.63,-122 1052.63,-86 1163.37,-86 1163.37,-122"/>
<text text-anchor="middle" x="1108" y="-99.8" font-family="Times,serif" font-size="14.00">ErrorComponent</text>
</g>
<!-- AppModule -->
<g id="node6" class="node">
<title>AppModule</title>
<polygon fill="#8dd3c7" stroke="black" points="673.66,-198 670.66,-202 649.66,-202 646.66,-198 590.34,-198 590.34,-162 673.66,-162 673.66,-198"/>
<text text-anchor="middle" x="632" y="-175.8" font-family="Times,serif" font-size="14.00">AppModule</text>
</g>
<!-- ErrorComponent&#45;&gt;AppModule -->
<g id="edge1" class="edge">
<title>ErrorComponent&#45;&gt;AppModule</title>
<path fill="none" stroke="black" d="M1108,-122.03C1108,-146.98 1108,-189 1108,-189 1108,-189 683.82,-189 683.82,-189"/>
<polygon fill="black" stroke="black" points="683.82,-185.5 673.82,-189 683.82,-192.5 683.82,-185.5"/>
</g>
<!-- FooterComponent -->
<g id="node2" class="node">
<title>FooterComponent</title>
<polygon fill="#ffffb3" stroke="black" points="1034.88,-122 917.12,-122 917.12,-86 1034.88,-86 1034.88,-122"/>
<text text-anchor="middle" x="976" y="-99.8" font-family="Times,serif" font-size="14.00">FooterComponent</text>
</g>
<!-- FooterComponent&#45;&gt;AppModule -->
<g id="edge2" class="edge">
<title>FooterComponent&#45;&gt;AppModule</title>
<path fill="none" stroke="black" d="M976,-122.01C976,-144.49 976,-180 976,-180 976,-180 683.84,-180 683.84,-180"/>
<polygon fill="black" stroke="black" points="683.84,-176.5 673.84,-180 683.84,-183.5 683.84,-176.5"/>
</g>
<!-- MainComponent -->
<g id="node3" class="node">
<title>MainComponent</title>
<polygon fill="#ffffb3" stroke="black" points="899.38,-122 788.62,-122 788.62,-86 899.38,-86 899.38,-122"/>
<text text-anchor="middle" x="844" y="-99.8" font-family="Times,serif" font-size="14.00">MainComponent</text>
</g>
<!-- MainComponent&#45;&gt;AppModule -->
<g id="edge3" class="edge">
<title>MainComponent&#45;&gt;AppModule</title>
<path fill="none" stroke="black" d="M844,-122.31C844,-142.15 844,-171 844,-171 844,-171 683.88,-171 683.88,-171"/>
<polygon fill="black" stroke="black" points="683.88,-167.5 673.88,-171 683.88,-174.5 683.88,-167.5"/>
</g>
<!-- NavbarComponent -->
<g id="node4" class="node">
<title>NavbarComponent</title>
<polygon fill="#ffffb3" stroke="black" points="770.03,-122 647.97,-122 647.97,-86 770.03,-86 770.03,-122"/>
<text text-anchor="middle" x="709" y="-99.8" font-family="Times,serif" font-size="14.00">NavbarComponent</text>
</g>
<!-- NavbarComponent&#45;&gt;AppModule -->
<g id="edge4" class="edge">
<title>NavbarComponent&#45;&gt;AppModule</title>
<path fill="none" stroke="black" d="M660.78,-122.01C660.78,-122.01 660.78,-151.85 660.78,-151.85"/>
<polygon fill="black" stroke="black" points="657.28,-151.85 660.78,-161.85 664.28,-151.85 657.28,-151.85"/>
</g>
<!-- PageRibbonComponent -->
<g id="node5" class="node">
<title>PageRibbonComponent</title>
<polygon fill="#ffffb3" stroke="black" points="629.77,-122 480.23,-122 480.23,-86 629.77,-86 629.77,-122"/>
<text text-anchor="middle" x="555" y="-99.8" font-family="Times,serif" font-size="14.00">PageRibbonComponent</text>
</g>
<!-- PageRibbonComponent&#45;&gt;AppModule -->
<g id="edge5" class="edge">
<title>PageRibbonComponent&#45;&gt;AppModule</title>
<path fill="none" stroke="black" d="M610.03,-122.01C610.03,-122.01 610.03,-151.85 610.03,-151.85"/>
<polygon fill="black" stroke="black" points="606.53,-151.85 610.03,-161.85 613.53,-151.85 606.53,-151.85"/>
</g>
<!-- MainComponent  -->
<g id="node8" class="node">
<title>MainComponent </title>
<polygon fill="#80b1d3" stroke="black" points="689.38,-263 574.62,-263 574.62,-227 689.38,-227 689.38,-263"/>
<text text-anchor="middle" x="632" y="-240.8" font-family="Times,serif" font-size="14.00">MainComponent </text>
</g>
<!-- AppModule&#45;&gt;MainComponent  -->
<g id="edge7" class="edge">
<title>AppModule&#45;&gt;MainComponent </title>
<path fill="none" stroke="black" stroke-dasharray="1,5" d="M632,-198.11C632,-198.11 632,-216.99 632,-216.99"/>
<polygon fill="black" stroke="black" points="628.5,-216.99 632,-226.99 635.5,-216.99 628.5,-216.99"/>
</g>
<!-- AppRoutingModule -->
<g id="node7" class="node">
<title>AppRoutingModule</title>
<polygon fill="#8dd3c7" stroke="black" points="456.27,-122 453.27,-126 432.27,-126 429.27,-122 327.73,-122 327.73,-86 456.27,-86 456.27,-122"/>
<text text-anchor="middle" x="392" y="-99.8" font-family="Times,serif" font-size="14.00">AppRoutingModule</text>
</g>
<!-- AppRoutingModule&#45;&gt;AppModule -->
<g id="edge6" class="edge">
<title>AppRoutingModule&#45;&gt;AppModule</title>
<path fill="none" stroke="black" d="M392,-122.31C392,-142.15 392,-171 392,-171 392,-171 580.2,-171 580.2,-171"/>
<polygon fill="black" stroke="black" points="580.2,-174.5 590.2,-171 580.2,-167.5 580.2,-174.5"/>
</g>
<!-- EditCellService -->
<g id="node9" class="node">
<title>EditCellService</title>
<ellipse fill="#fdb462" stroke="black" cx="232" cy="-104" rx="72.36" ry="18"/>
<text text-anchor="middle" x="232" y="-99.8" font-family="Times,serif" font-size="14.00">EditCellService</text>
</g>
<!-- EditCellService&#45;&gt;AppModule -->
<g id="edge8" class="edge">
<title>EditCellService&#45;&gt;AppModule</title>
<path fill="none" stroke="black" d="M232,-122.01C232,-144.49 232,-180 232,-180 232,-180 580.32,-180 580.32,-180"/>
<polygon fill="black" stroke="black" points="580.33,-183.5 590.32,-180 580.32,-176.5 580.33,-183.5"/>
</g>
<!-- TourService -->
<g id="node10" class="node">
<title>TourService</title>
<ellipse fill="#fdb462" stroke="black" cx="83" cy="-104" rx="58.53" ry="18"/>
<text text-anchor="middle" x="83" y="-99.8" font-family="Times,serif" font-size="14.00">TourService</text>
</g>
<!-- TourService&#45;&gt;AppModule -->
<g id="edge9" class="edge">
<title>TourService&#45;&gt;AppModule</title>
<path fill="none" stroke="black" d="M83,-122.03C83,-146.98 83,-189 83,-189 83,-189 580.29,-189 580.29,-189"/>
<polygon fill="black" stroke="black" points="580.29,-192.5 590.29,-189 580.29,-185.5 580.29,-192.5"/>
</g>
<!-- ChangesComponent -->
<g id="node11" class="node">
<title>ChangesComponent</title>
<polygon fill="#ffffb3" stroke="black" points="1332.54,-122 1203.46,-122 1203.46,-86 1332.54,-86 1332.54,-122"/>
<text text-anchor="middle" x="1268" y="-99.8" font-family="Times,serif" font-size="14.00">ChangesComponent</text>
</g>
<!-- ChangesPageModule -->
<g id="node12" class="node">
<title>ChangesPageModule</title>
<polygon fill="#8dd3c7" stroke="black" points="1335.47,-198 1332.47,-202 1311.47,-202 1308.47,-198 1200.53,-198 1200.53,-162 1335.47,-162 1335.47,-198"/>
<text text-anchor="middle" x="1268" y="-175.8" font-family="Times,serif" font-size="14.00">ChangesPageModule</text>
</g>
<!-- ChangesComponent&#45;&gt;ChangesPageModule -->
<g id="edge10" class="edge">
<title>ChangesComponent&#45;&gt;ChangesPageModule</title>
<path fill="none" stroke="black" d="M1268,-122.01C1268,-122.01 1268,-151.85 1268,-151.85"/>
<polygon fill="black" stroke="black" points="1264.5,-151.85 1268,-161.85 1271.5,-151.85 1264.5,-151.85"/>
</g>
<!-- FlaggedMaterialComponent -->
<g id="node13" class="node">
<title>FlaggedMaterialComponent</title>
<polygon fill="#ffffb3" stroke="black" points="3302.86,-198 3129.14,-198 3129.14,-162 3302.86,-162 3302.86,-198"/>
<text text-anchor="middle" x="3216" y="-175.8" font-family="Times,serif" font-size="14.00">FlaggedMaterialComponent</text>
</g>
<!-- FlaggedMaterialModule -->
<g id="node16" class="node">
<title>FlaggedMaterialModule</title>
<polygon fill="#8dd3c7" stroke="black" points="2859.07,-263 2856.07,-267 2835.07,-267 2832.07,-263 2706.93,-263 2706.93,-227 2859.07,-227 2859.07,-263"/>
<text text-anchor="middle" x="2783" y="-240.8" font-family="Times,serif" font-size="14.00">FlaggedMaterialModule</text>
</g>
<!-- FlaggedMaterialComponent&#45;&gt;FlaggedMaterialModule -->
<g id="edge11" class="edge">
<title>FlaggedMaterialComponent&#45;&gt;FlaggedMaterialModule</title>
<path fill="none" stroke="black" d="M3216,-198.28C3216,-219.32 3216,-251 3216,-251 3216,-251 2869.41,-251 2869.41,-251"/>
<polygon fill="black" stroke="black" points="2869.42,-247.5 2859.41,-251 2869.41,-254.5 2869.42,-247.5"/>
</g>
<!-- FlaggedMaterialUpdateComponent -->
<g id="node14" class="node">
<title>FlaggedMaterialUpdateComponent</title>
<polygon fill="#ffffb3" stroke="black" points="3111.28,-198 2896.72,-198 2896.72,-162 3111.28,-162 3111.28,-198"/>
<text text-anchor="middle" x="3004" y="-175.8" font-family="Times,serif" font-size="14.00">FlaggedMaterialUpdateComponent</text>
</g>
<!-- FlaggedMaterialUpdateComponent&#45;&gt;FlaggedMaterialModule -->
<g id="edge12" class="edge">
<title>FlaggedMaterialUpdateComponent&#45;&gt;FlaggedMaterialModule</title>
<path fill="none" stroke="black" d="M3004,-198.02C3004,-215.37 3004,-239 3004,-239 3004,-239 2869.06,-239 2869.06,-239"/>
<polygon fill="black" stroke="black" points="2869.06,-235.5 2859.06,-239 2869.06,-242.5 2869.06,-235.5"/>
</g>
<!-- FlaggedOptionsBarComponent -->
<g id="node15" class="node">
<title>FlaggedOptionsBarComponent</title>
<polygon fill="#ffffb3" stroke="black" points="2878.48,-198 2687.52,-198 2687.52,-162 2878.48,-162 2878.48,-198"/>
<text text-anchor="middle" x="2783" y="-175.8" font-family="Times,serif" font-size="14.00">FlaggedOptionsBarComponent</text>
</g>
<!-- FlaggedOptionsBarComponent&#45;&gt;FlaggedMaterialModule -->
<g id="edge13" class="edge">
<title>FlaggedOptionsBarComponent&#45;&gt;FlaggedMaterialModule</title>
<path fill="none" stroke="black" d="M2783,-198.11C2783,-198.11 2783,-216.99 2783,-216.99"/>
<polygon fill="black" stroke="black" points="2779.5,-216.99 2783,-226.99 2786.5,-216.99 2779.5,-216.99"/>
</g>
<!-- FlaggedMaterialRoutingModule -->
<g id="node17" class="node">
<title>FlaggedMaterialRoutingModule</title>
<polygon fill="#8dd3c7" stroke="black" points="2663.69,-198 2660.69,-202 2639.69,-202 2636.69,-198 2466.31,-198 2466.31,-162 2663.69,-162 2663.69,-198"/>
<text text-anchor="middle" x="2565" y="-175.8" font-family="Times,serif" font-size="14.00">FlaggedMaterialRoutingModule</text>
</g>
<!-- FlaggedMaterialRoutingModule&#45;&gt;FlaggedMaterialModule -->
<g id="edge14" class="edge">
<title>FlaggedMaterialRoutingModule&#45;&gt;FlaggedMaterialModule</title>
<path fill="none" stroke="black" d="M2565,-198.02C2565,-215.37 2565,-239 2565,-239 2565,-239 2696.75,-239 2696.75,-239"/>
<polygon fill="black" stroke="black" points="2696.75,-242.5 2706.75,-239 2696.75,-235.5 2696.75,-242.5"/>
</g>
<!-- MaterialModule -->
<g id="node18" class="node">
<title>MaterialModule</title>
<polygon fill="#8dd3c7" stroke="black" points="2448.47,-198 2445.47,-202 2424.47,-202 2421.47,-198 2341.53,-198 2341.53,-162 2448.47,-162 2448.47,-198"/>
<text text-anchor="middle" x="2395" y="-175.8" font-family="Times,serif" font-size="14.00">MaterialModule</text>
</g>
<!-- MaterialModule&#45;&gt;FlaggedMaterialModule -->
<g id="edge15" class="edge">
<title>MaterialModule&#45;&gt;FlaggedMaterialModule</title>
<path fill="none" stroke="black" d="M2395,-198.28C2395,-219.32 2395,-251 2395,-251 2395,-251 2696.81,-251 2696.81,-251"/>
<polygon fill="black" stroke="black" points="2696.81,-254.5 2706.81,-251 2696.81,-247.5 2696.81,-254.5"/>
</g>
<!-- FilterDisplayCellComponent  -->
<g id="node30" class="node">
<title>FilterDisplayCellComponent </title>
<polygon fill="#fb8072" stroke="black" points="1555.04,-122 1372.96,-122 1372.96,-86 1555.04,-86 1555.04,-122"/>
<text text-anchor="middle" x="1464" y="-99.8" font-family="Times,serif" font-size="14.00">FilterDisplayCellComponent </text>
</g>
<!-- MaterialModule&#45;&gt;FilterDisplayCellComponent  -->
<g id="edge27" class="edge">
<title>MaterialModule&#45;&gt;FilterDisplayCellComponent </title>
<path fill="none" stroke="black" stroke-dasharray="5,2" d="M2341.26,-192C2143,-192 1464,-192 1464,-192 1464,-192 1464,-132.23 1464,-132.23"/>
<polygon fill="black" stroke="black" points="1467.5,-132.23 1464,-122.23 1460.5,-132.23 1467.5,-132.23"/>
</g>
<!-- CommentModalComponent -->
<g id="node19" class="node">
<title>CommentModalComponent</title>
<polygon fill="#ffffb3" stroke="black" points="3483.61,-122 3310.39,-122 3310.39,-86 3483.61,-86 3483.61,-122"/>
<text text-anchor="middle" x="3397" y="-99.8" font-family="Times,serif" font-size="14.00">CommentModalComponent</text>
</g>
<!-- CommentModalComponent&#45;&gt;MaterialModule -->
<g id="edge16" class="edge">
<title>CommentModalComponent&#45;&gt;MaterialModule</title>
<path fill="none" stroke="black" d="M3397,-122.19C3397,-137.18 3397,-156 3397,-156 3397,-156 2441.17,-156 2441.17,-156 2441.17,-156 2441.17,-156.58 2441.17,-156.58"/>
<polygon fill="black" stroke="black" points="2437.67,-151.81 2441.17,-161.81 2444.67,-151.81 2437.67,-151.81"/>
</g>
<!-- CurrencyToolTipCellComponent -->
<g id="node20" class="node">
<title>CurrencyToolTipCellComponent</title>
<polygon fill="#ffffb3" stroke="black" points="3292.14,-122 3089.86,-122 3089.86,-86 3292.14,-86 3292.14,-122"/>
<text text-anchor="middle" x="3191" y="-99.8" font-family="Times,serif" font-size="14.00">CurrencyToolTipCellComponent</text>
</g>
<!-- CurrencyToolTipCellComponent&#45;&gt;MaterialModule -->
<g id="edge17" class="edge">
<title>CurrencyToolTipCellComponent&#45;&gt;MaterialModule</title>
<path fill="none" stroke="black" d="M3100.41,-122.04C3100.41,-134.56 3100.41,-149 3100.41,-149 3100.41,-149 2433.85,-149 2433.85,-149 2433.85,-149 2433.85,-151.97 2433.85,-151.97"/>
<polygon fill="black" stroke="black" points="2430.35,-151.97 2433.85,-161.97 2437.35,-151.97 2430.35,-151.97"/>
</g>
<!-- FilterDisplayCellComponent -->
<g id="node21" class="node">
<title>FilterDisplayCellComponent</title>
<polygon fill="#ffffb3" stroke="black" points="3071.04,-122 2892.96,-122 2892.96,-86 3071.04,-86 3071.04,-122"/>
<text text-anchor="middle" x="2982" y="-99.8" font-family="Times,serif" font-size="14.00">FilterDisplayCellComponent</text>
</g>
<!-- FilterDisplayCellComponent&#45;&gt;MaterialModule -->
<g id="edge18" class="edge">
<title>FilterDisplayCellComponent&#45;&gt;MaterialModule</title>
<path fill="none" stroke="black" d="M2984.06,-122.11C2984.06,-131.9 2984.06,-142 2984.06,-142 2984.06,-142 2426.53,-142 2426.53,-142 2426.53,-142 2426.53,-151.89 2426.53,-151.89"/>
<polygon fill="black" stroke="black" points="2423.03,-151.89 2426.53,-161.89 2430.03,-151.89 2423.03,-151.89"/>
</g>
<!-- FilterFormComponent -->
<g id="node22" class="node">
<title>FilterFormComponent</title>
<polygon fill="#ffffb3" stroke="black" points="2875,-122 2733,-122 2733,-86 2875,-86 2875,-122"/>
<text text-anchor="middle" x="2804" y="-99.8" font-family="Times,serif" font-size="14.00">FilterFormComponent</text>
</g>
<!-- FilterFormComponent&#45;&gt;MaterialModule -->
<g id="edge19" class="edge">
<title>FilterFormComponent&#45;&gt;MaterialModule</title>
<path fill="none" stroke="black" d="M2804,-122.24C2804,-129.43 2804,-136 2804,-136 2804,-136 2419.2,-136 2419.2,-136 2419.2,-136 2419.2,-151.85 2419.2,-151.85"/>
<polygon fill="black" stroke="black" points="2415.71,-151.85 2419.2,-161.85 2422.71,-151.85 2415.71,-151.85"/>
</g>
<!-- FlagModalComponent -->
<g id="node23" class="node">
<title>FlagModalComponent</title>
<polygon fill="#ffffb3" stroke="black" points="2715.27,-122 2572.73,-122 2572.73,-86 2715.27,-86 2715.27,-122"/>
<text text-anchor="middle" x="2644" y="-99.8" font-family="Times,serif" font-size="14.00">FlagModalComponent</text>
</g>
<!-- FlagModalComponent&#45;&gt;MaterialModule -->
<g id="edge20" class="edge">
<title>FlagModalComponent&#45;&gt;MaterialModule</title>
<path fill="none" stroke="black" d="M2618.11,-122.17C2618.11,-126.05 2618.11,-129 2618.11,-129 2618.11,-129 2411.88,-129 2411.88,-129 2411.88,-129 2411.88,-151.88 2411.88,-151.88"/>
<polygon fill="black" stroke="black" points="2408.38,-151.88 2411.88,-161.88 2415.38,-151.88 2408.38,-151.88"/>
</g>
<!-- HeaderGroupComponent -->
<g id="node24" class="node">
<title>HeaderGroupComponent</title>
<polygon fill="#ffffb3" stroke="black" points="2554.51,-122 2397.49,-122 2397.49,-86 2554.51,-86 2554.51,-122"/>
<text text-anchor="middle" x="2476" y="-99.8" font-family="Times,serif" font-size="14.00">HeaderGroupComponent</text>
</g>
<!-- HeaderGroupComponent&#45;&gt;MaterialModule -->
<g id="edge21" class="edge">
<title>HeaderGroupComponent&#45;&gt;MaterialModule</title>
<path fill="none" stroke="black" d="M2404.56,-122.01C2404.56,-122.01 2404.56,-151.85 2404.56,-151.85"/>
<polygon fill="black" stroke="black" points="2401.06,-151.85 2404.56,-161.85 2408.06,-151.85 2401.06,-151.85"/>
</g>
<!-- MaterialComponent -->
<g id="node25" class="node">
<title>MaterialComponent</title>
<polygon fill="#ffffb3" stroke="black" points="2379.25,-122 2250.75,-122 2250.75,-86 2379.25,-86 2379.25,-122"/>
<text text-anchor="middle" x="2315" y="-99.8" font-family="Times,serif" font-size="14.00">MaterialComponent</text>
</g>
<!-- MaterialComponent&#45;&gt;MaterialModule -->
<g id="edge22" class="edge">
<title>MaterialComponent&#45;&gt;MaterialModule</title>
<path fill="none" stroke="black" d="M2360.45,-122.01C2360.45,-122.01 2360.45,-151.85 2360.45,-151.85"/>
<polygon fill="black" stroke="black" points="2356.95,-151.85 2360.45,-161.85 2363.95,-151.85 2356.95,-151.85"/>
</g>
<!-- OptionsBarComponent -->
<g id="node26" class="node">
<title>OptionsBarComponent</title>
<polygon fill="#ffffb3" stroke="black" points="2232.88,-122 2087.12,-122 2087.12,-86 2232.88,-86 2232.88,-122"/>
<text text-anchor="middle" x="2160" y="-99.8" font-family="Times,serif" font-size="14.00">OptionsBarComponent</text>
</g>
<!-- OptionsBarComponent&#45;&gt;MaterialModule -->
<g id="edge23" class="edge">
<title>OptionsBarComponent&#45;&gt;MaterialModule</title>
<path fill="none" stroke="black" d="M2160,-122.17C2160,-141.09 2160,-168 2160,-168 2160,-168 2331.38,-168 2331.38,-168"/>
<polygon fill="black" stroke="black" points="2331.38,-171.5 2341.38,-168 2331.38,-164.5 2331.38,-171.5"/>
</g>
<!-- SubmitModalComponent -->
<g id="node27" class="node">
<title>SubmitModalComponent</title>
<polygon fill="#ffffb3" stroke="black" points="2069.34,-122 1910.66,-122 1910.66,-86 2069.34,-86 2069.34,-122"/>
<text text-anchor="middle" x="1990" y="-99.8" font-family="Times,serif" font-size="14.00">SubmitModalComponent</text>
</g>
<!-- SubmitModalComponent&#45;&gt;MaterialModule -->
<g id="edge24" class="edge">
<title>SubmitModalComponent&#45;&gt;MaterialModule</title>
<path fill="none" stroke="black" d="M1990,-122.03C1990,-142.77 1990,-174 1990,-174 1990,-174 2331.22,-174 2331.22,-174"/>
<polygon fill="black" stroke="black" points="2331.22,-177.5 2341.22,-174 2331.22,-170.5 2331.22,-177.5"/>
</g>
<!-- ValueCellComponent -->
<g id="node28" class="node">
<title>ValueCellComponent</title>
<polygon fill="#ffffb3" stroke="black" points="1893.09,-122 1754.91,-122 1754.91,-86 1893.09,-86 1893.09,-122"/>
<text text-anchor="middle" x="1824" y="-99.8" font-family="Times,serif" font-size="14.00">ValueCellComponent</text>
</g>
<!-- ValueCellComponent&#45;&gt;MaterialModule -->
<g id="edge25" class="edge">
<title>ValueCellComponent&#45;&gt;MaterialModule</title>
<path fill="none" stroke="black" d="M1824,-122.01C1824,-144.49 1824,-180 1824,-180 1824,-180 2331.28,-180 2331.28,-180"/>
<polygon fill="black" stroke="black" points="2331.28,-183.5 2341.28,-180 2331.28,-176.5 2331.28,-183.5"/>
</g>
<!-- MaterialRoutingModule -->
<g id="node29" class="node">
<title>MaterialRoutingModule</title>
<polygon fill="#8dd3c7" stroke="black" points="1731.09,-122 1728.09,-126 1707.09,-126 1704.09,-122 1578.91,-122 1578.91,-86 1731.09,-86 1731.09,-122"/>
<text text-anchor="middle" x="1655" y="-99.8" font-family="Times,serif" font-size="14.00">MaterialRoutingModule</text>
</g>
<!-- MaterialRoutingModule&#45;&gt;MaterialModule -->
<g id="edge26" class="edge">
<title>MaterialRoutingModule&#45;&gt;MaterialModule</title>
<path fill="none" stroke="black" d="M1655,-122.2C1655,-146.36 1655,-186 1655,-186 1655,-186 2331.48,-186 2331.48,-186"/>
<polygon fill="black" stroke="black" points="2331.48,-189.5 2341.48,-186 2331.48,-182.5 2331.48,-189.5"/>
</g>
</g>
</svg>
