<?xml version="1.0" encoding="UTF-8" standalone="no"?>
<!DOCTYPE svg PUBLIC "-//W3C//DTD SVG 1.1//EN"
 "http://www.w3.org/Graphics/SVG/1.1/DTD/svg11.dtd">
<!-- Generated by graphviz version 2.47.0 (20210316.0004)
 -->
<!-- Title: dependencies Pages: 1 -->
<svg width="1195pt" height="284pt"
 viewBox="0.00 0.00 1195.00 284.00" xmlns="http://www.w3.org/2000/svg" xmlns:xlink="http://www.w3.org/1999/xlink">
<g id="graph0" class="graph" transform="scale(1 1) rotate(0) translate(4 280)">
<title>dependencies</title>
<polygon fill="white" stroke="transparent" points="-4,4 -4,-280 1191,-280 1191,4 -4,4"/>
<text text-anchor="start" x="572.51" y="-42.4" font-family="Times-12" font-weight="bold" font-size="14.00">Legend</text>
<polygon fill="#ffffb3" stroke="transparent" points="359.5,-10 359.5,-30 379.5,-30 379.5,-10 359.5,-10"/>
<text text-anchor="start" x="383.13" y="-15.4" font-family="Times-12" font-size="14.00"> &#160;Declarations</text>
<polygon fill="#8dd3c7" stroke="transparent" points="472.5,-10 472.5,-30 492.5,-30 492.5,-10 472.5,-10"/>
<text text-anchor="start" x="496.23" y="-15.4" font-family="Times-12" font-size="14.00"> &#160;Module</text>
<polygon fill="#80b1d3" stroke="transparent" points="558.5,-10 558.5,-30 578.5,-30 578.5,-10 558.5,-10"/>
<text text-anchor="start" x="582.28" y="-15.4" font-family="Times-12" font-size="14.00"> &#160;Bootstrap</text>
<polygon fill="#fdb462" stroke="transparent" points="655.5,-10 655.5,-30 675.5,-30 675.5,-10 655.5,-10"/>
<text text-anchor="start" x="679.17" y="-15.4" font-family="Times-12" font-size="14.00"> &#160;Providers</text>
<polygon fill="#fb8072" stroke="transparent" points="751.5,-10 751.5,-30 771.5,-30 771.5,-10 751.5,-10"/>
<text text-anchor="start" x="775.23" y="-15.4" font-family="Times-12" font-size="14.00"> &#160;Exports</text>
<g id="clust1" class="cluster">
<title>cluster_AppModule</title>
<polygon fill="none" stroke="black" stroke-dasharray="1,5" points="8,-70 8,-268 1179,-268 1179,-70 8,-70"/>
</g>
<g id="clust10" class="cluster">
<title>cluster_AppModule_bootstrap</title>
<polygon fill="none" stroke="black" points="521,-208 521,-260 651,-260 651,-208 521,-208"/>
</g>
<g id="clust11" class="cluster">
<title>cluster_AppModule_providers</title>
<polygon fill="none" stroke="black" points="875,-78 875,-130 1171,-130 1171,-78 875,-78"/>
</g>
<g id="clust8" class="cluster">
<title>cluster_AppModule_imports</title>
<polygon fill="none" stroke="black" points="723,-78 723,-130 867,-130 867,-78 723,-78"/>
</g>
<g id="clust2" class="cluster">
<title>cluster_AppModule_declarations</title>
<polygon fill="none" stroke="black" points="16,-78 16,-130 715,-130 715,-78 16,-78"/>
</g>
<!-- ErrorComponent -->
<g id="node1" class="node">
<title>ErrorComponent</title>
<polygon fill="#ffffb3" stroke="black" points="707.37,-122 596.63,-122 596.63,-86 707.37,-86 707.37,-122"/>
<text text-anchor="middle" x="652" y="-99.8" font-family="Times,serif" font-size="14.00">ErrorComponent</text>
</g>
<!-- AppModule -->
<g id="node6" class="node">
<title>AppModule</title>
<polygon fill="#8dd3c7" stroke="black" points="627.66,-187 624.66,-191 603.66,-191 600.66,-187 544.34,-187 544.34,-151 627.66,-151 627.66,-187"/>
<text text-anchor="middle" x="586" y="-164.8" font-family="Times,serif" font-size="14.00">AppModule</text>
</g>
<!-- ErrorComponent&#45;&gt;AppModule -->
<g id="edge1" class="edge">
<title>ErrorComponent&#45;&gt;AppModule</title>
<path fill="none" stroke="black" d="M612.2,-122.11C612.2,-122.11 612.2,-140.99 612.2,-140.99"/>
<polygon fill="black" stroke="black" points="608.7,-140.99 612.2,-150.99 615.7,-140.99 608.7,-140.99"/>
</g>
<!-- FooterComponent -->
<g id="node2" class="node">
<title>FooterComponent</title>
<polygon fill="#ffffb3" stroke="black" points="578.88,-122 461.12,-122 461.12,-86 578.88,-86 578.88,-122"/>
<text text-anchor="middle" x="520" y="-99.8" font-family="Times,serif" font-size="14.00">FooterComponent</text>
</g>
<!-- FooterComponent&#45;&gt;AppModule -->
<g id="edge2" class="edge">
<title>FooterComponent&#45;&gt;AppModule</title>
<path fill="none" stroke="black" d="M561.56,-122.11C561.56,-122.11 561.56,-140.99 561.56,-140.99"/>
<polygon fill="black" stroke="black" points="558.06,-140.99 561.56,-150.99 565.06,-140.99 558.06,-140.99"/>
</g>
<!-- MainComponent -->
<g id="node3" class="node">
<title>MainComponent</title>
<polygon fill="#ffffb3" stroke="black" points="443.38,-122 332.62,-122 332.62,-86 443.38,-86 443.38,-122"/>
<text text-anchor="middle" x="388" y="-99.8" font-family="Times,serif" font-size="14.00">MainComponent</text>
</g>
<!-- MainComponent&#45;&gt;AppModule -->
<g id="edge3" class="edge">
<title>MainComponent&#45;&gt;AppModule</title>
<path fill="none" stroke="black" d="M388,-122.03C388,-138.4 388,-160 388,-160 388,-160 534.01,-160 534.01,-160"/>
<polygon fill="black" stroke="black" points="534.01,-163.5 544.01,-160 534.01,-156.5 534.01,-163.5"/>
</g>
<!-- NavbarComponent -->
<g id="node4" class="node">
<title>NavbarComponent</title>
<polygon fill="#ffffb3" stroke="black" points="314.03,-122 191.97,-122 191.97,-86 314.03,-86 314.03,-122"/>
<text text-anchor="middle" x="253" y="-99.8" font-family="Times,serif" font-size="14.00">NavbarComponent</text>
</g>
<!-- NavbarComponent&#45;&gt;AppModule -->
<g id="edge4" class="edge">
<title>NavbarComponent&#45;&gt;AppModule</title>
<path fill="none" stroke="black" d="M253,-122.11C253,-141.34 253,-169 253,-169 253,-169 534.16,-169 534.16,-169"/>
<polygon fill="black" stroke="black" points="534.16,-172.5 544.16,-169 534.16,-165.5 534.16,-172.5"/>
</g>
<!-- PageRibbonComponent -->
<g id="node5" class="node">
<title>PageRibbonComponent</title>
<polygon fill="#ffffb3" stroke="black" points="173.77,-122 24.23,-122 24.23,-86 173.77,-86 173.77,-122"/>
<text text-anchor="middle" x="99" y="-99.8" font-family="Times,serif" font-size="14.00">PageRibbonComponent</text>
</g>
<!-- PageRibbonComponent&#45;&gt;AppModule -->
<g id="edge5" class="edge">
<title>PageRibbonComponent&#45;&gt;AppModule</title>
<path fill="none" stroke="black" d="M99,-122.29C99,-144.21 99,-178 99,-178 99,-178 534.06,-178 534.06,-178"/>
<polygon fill="black" stroke="black" points="534.06,-181.5 544.06,-178 534.06,-174.5 534.06,-181.5"/>
</g>
<!-- MainComponent  -->
<g id="node8" class="node">
<title>MainComponent </title>
<polygon fill="#80b1d3" stroke="black" points="643.38,-252 528.62,-252 528.62,-216 643.38,-216 643.38,-252"/>
<text text-anchor="middle" x="586" y="-229.8" font-family="Times,serif" font-size="14.00">MainComponent </text>
</g>
<!-- AppModule&#45;&gt;MainComponent  -->
<g id="edge7" class="edge">
<title>AppModule&#45;&gt;MainComponent </title>
<path fill="none" stroke="black" stroke-dasharray="1,5" d="M586,-187.11C586,-187.11 586,-205.99 586,-205.99"/>
<polygon fill="black" stroke="black" points="582.5,-205.99 586,-215.99 589.5,-205.99 582.5,-205.99"/>
</g>
<!-- AppRoutingModule -->
<g id="node7" class="node">
<title>AppRoutingModule</title>
<polygon fill="#8dd3c7" stroke="black" points="859.27,-122 856.27,-126 835.27,-126 832.27,-122 730.73,-122 730.73,-86 859.27,-86 859.27,-122"/>
<text text-anchor="middle" x="795" y="-99.8" font-family="Times,serif" font-size="14.00">AppRoutingModule</text>
</g>
<!-- AppRoutingModule&#45;&gt;AppModule -->
<g id="edge6" class="edge">
<title>AppRoutingModule&#45;&gt;AppModule</title>
<path fill="none" stroke="black" d="M795,-122.03C795,-138.4 795,-160 795,-160 795,-160 637.79,-160 637.79,-160"/>
<polygon fill="black" stroke="black" points="637.79,-156.5 627.79,-160 637.79,-163.5 637.79,-156.5"/>
</g>
<!-- EditCellService -->
<g id="node9" class="node">
<title>EditCellService</title>
<ellipse fill="#fdb462" stroke="black" cx="1091" cy="-104" rx="72.36" ry="18"/>
<text text-anchor="middle" x="1091" y="-99.8" font-family="Times,serif" font-size="14.00">EditCellService</text>
</g>
<!-- EditCellService&#45;&gt;AppModule -->
<g id="edge8" class="edge">
<title>EditCellService&#45;&gt;AppModule</title>
<path fill="none" stroke="black" d="M1091,-122.29C1091,-144.21 1091,-178 1091,-178 1091,-178 637.76,-178 637.76,-178"/>
<polygon fill="black" stroke="black" points="637.76,-174.5 627.76,-178 637.76,-181.5 637.76,-174.5"/>
</g>
<!-- TourService -->
<g id="node10" class="node">
<title>TourService</title>
<ellipse fill="#fdb462" stroke="black" cx="942" cy="-104" rx="58.53" ry="18"/>
<text text-anchor="middle" x="942" y="-99.8" font-family="Times,serif" font-size="14.00">TourService</text>
</g>
<!-- TourService&#45;&gt;AppModule -->
<g id="edge9" class="edge">
<title>TourService&#45;&gt;AppModule</title>
<path fill="none" stroke="black" d="M942,-122.11C942,-141.34 942,-169 942,-169 942,-169 637.88,-169 637.88,-169"/>
<polygon fill="black" stroke="black" points="637.88,-165.5 627.88,-169 637.88,-172.5 637.88,-165.5"/>
</g>
</g>
</svg>
